<svg width="1400" height="545" viewBox="0 0 1400 545" fill="none" xmlns="http://www.w3.org/2000/svg">
<mask id="mask0_41_14495" style="mask-type:alpha" maskUnits="userSpaceOnUse" x="-1" y="0" width="1402" height="545">
<rect x="-1" width="1402" height="545" rx="60" fill="url(#paint0_linear_41_14495)"/>
</mask>
<g mask="url(#mask0_41_14495)">
<path opacity="0.2" d="M952 251.5C952 390.4 839.4 503 700.5 503C561.6 503 449 390.4 449 251.5C449 112.6 561.6 0 700.5 0C839.4 0 952 112.6 952 251.5ZM525.082 251.5C525.082 348.381 603.619 426.918 700.5 426.918C797.381 426.918 875.918 348.381 875.918 251.5C875.918 154.619 797.381 76.0819 700.5 76.0819C603.619 76.0819 525.082 154.619 525.082 251.5Z" fill="white"/>
<circle opacity="0.2" cx="700.5" cy="251.5" r="116.5" fill="white"/>
<path opacity="0.08" d="M1086 251.5C1086 464.406 913.406 637 700.5 637C487.594 637 315 464.406 315 251.5C315 38.5942 487.594 -134 700.5 -134C913.406 -134 1086 38.5942 1086 251.5ZM385.935 251.5C385.935 425.229 526.771 566.065 700.5 566.065C874.229 566.065 1015.06 425.229 1015.06 251.5C1015.06 77.7708 874.229 -63.0645 700.5 -63.0645C526.771 -63.0645 385.935 77.7708 385.935 251.5Z" fill="white"/>
<path opacity="0.03" d="M1206 251.5C1206 530.68 979.68 757 700.5 757C421.32 757 195 530.68 195 251.5C195 -27.6799 421.32 -254 700.5 -254C979.68 -254 1206 -27.6799 1206 251.5ZM254.921 251.5C254.921 497.587 454.413 697.079 700.5 697.079C946.587 697.079 1146.08 497.587 1146.08 251.5C1146.08 5.41333 946.587 -194.079 700.5 -194.079C454.413 -194.079 254.921 5.41333 254.921 251.5Z" fill="white"/>
</g>
<defs>
<linearGradient id="paint0_linear_41_14495" x1="-1.00002" y1="545" x2="1118.17" y2="1084.04" gradientUnits="userSpaceOnUse">
<stop stop-color="#F25C5E"/>
<stop offset="1" stop-color="#F89341"/>
</linearGradient>
</defs>
</svg>
