<svg width="2100" height="2100" viewBox="0 0 2100 2100" fill="none" xmlns="http://www.w3.org/2000/svg">
<g clip-path="url(#clip0_2399_1016)">
<g filter="url(#filter0_f_2399_1016)">
<path opacity="0.4" d="M1762.96 723.763C1754.06 668.511 1834.57 704.269 1932.91 807.586C2031.24 910.902 2216.96 1083.4 2225.87 1138.65C2234.78 1193.9 2168.21 1255.9 2069.87 1152.58C1971.54 1049.26 1771.87 779.015 1762.96 723.763Z" fill="#0ea5e9"/>
<path opacity="0.4" d="M1729.57 865.708C1720.62 810.169 1801.55 846.113 1900.4 949.965C1999.24 1053.82 2185.92 1227.21 2194.88 1282.75C2203.83 1338.29 2136.92 1400.6 2038.07 1296.75C1939.23 1192.9 1738.53 921.247 1729.57 865.708Z" fill="#fff"/>
</g>
</g>
<defs>
<filter id="filter0_f_2399_1016" x="1428.89" y="397.908" width="1097.77" height="1254.79" filterUnits="userSpaceOnUse" color-interpolation-filters="sRGB">
<feFlood flood-opacity="0" result="BackgroundImageFix"/>
<feBlend mode="normal" in="SourceGraphic" in2="BackgroundImageFix" result="shape"/>
<feGaussianBlur stdDeviation="150" result="effect1_foregroundBlur_2399_1016"/>
</filter>
<clipPath id="clip0_2399_1016">
<rect width="2100" height="2100" fill="white"/>
</clipPath>
</defs>
</svg>
