<svg xmlns="http://www.w3.org/2000/svg" width="507" height="713" viewBox="0 0 507 713" fill="none"><g filter="url(#filter0_f_2328_7068)"><circle cx="1.2" cy="1.2" r="1.2" transform="matrix(-1 0 0 1 198 384)" fill="white"/></g><g filter="url(#filter1_f_2328_7068)"><circle cx="1.2" cy="1.2" r="1.2" transform="matrix(-1 0 0 1 148 409)" fill="white"/></g><g filter="url(#filter2_f_2328_7068)"><circle cx="1.2" cy="1.2" r="1.2" transform="matrix(-1 0 0 1 128 380)" fill="white"/></g><g filter="url(#filter3_f_2328_7068)"><circle cx="1.2" cy="1.2" r="1.2" transform="matrix(-1 0 0 1 158 350)" fill="white"/></g><g filter="url(#filter4_f_2328_7068)"><circle cx="1.2" cy="1.2" r="1.2" transform="matrix(-1 0 0 1 56 254)" fill="white"/></g><g filter="url(#filter5_f_2328_7068)"><circle cx="1.2" cy="1.2" r="1.2" transform="matrix(-1 0 0 1 181 195)" fill="white"/></g><g filter="url(#filter6_f_2328_7068)"><circle cx="1.2" cy="1.2" r="1.2" transform="matrix(-1 0 0 1 333 224)" fill="white"/></g><g filter="url(#filter7_f_2328_7068)"><circle cx="1.2" cy="1.2" r="1.2" transform="matrix(-1 0 0 1 377 217)" fill="white"/></g><g filter="url(#filter8_f_2328_7068)"><circle cx="1.2" cy="1.2" r="1.2" transform="matrix(-1 0 0 1 459 249)" fill="white"/></g><g filter="url(#filter9_f_2328_7068)"><circle cx="1.2" cy="1.2" r="1.2" transform="matrix(-1 0 0 1 421 378)" fill="white"/></g><g filter="url(#filter10_f_2328_7068)"><circle cx="1.2" cy="1.2" r="1.2" transform="matrix(-1 0 0 1 424 425)" fill="white"/></g><g filter="url(#filter11_f_2328_7068)"><circle cx="1.2" cy="1.2" r="1.2" transform="matrix(-1 0 0 1 344 452)" fill="white"/></g><g filter="url(#filter12_f_2328_7068)"><circle cx="1.2" cy="1.2" r="1.2" transform="matrix(-1 0 0 1 322 482)" fill="white"/></g><g filter="url(#filter13_f_2328_7068)"><circle cx="1.2" cy="1.2" r="1.2" transform="matrix(-1 0 0 1 377 502)" fill="white"/></g><g filter="url(#filter14_f_2328_7068)"><circle cx="1.2" cy="1.2" r="1.2" transform="matrix(-1 0 0 1 375 461)" fill="white"/></g><g filter="url(#filter15_f_2328_7068)"><circle cx="245" cy="151" r="9" fill="#FFEFE2"/></g><g filter="url(#filter16_f_2328_7068)"><circle cx="245.401" cy="151.4" r="4" fill="#FFF3E9"/></g><g filter="url(#filter17_f_2328_7068)"><circle cx="191.5" cy="99.5" r="12.5" fill="#FFF3E9"/></g><g filter="url(#filter18_f_2328_7068)"><circle cx="191.5" cy="99.5" r="7.5" fill="#FFF6EE"/></g><g filter="url(#filter19_f_2328_7068)"><circle cx="62.5" cy="42.5" r="12.5" fill="#FFF3E9"/></g><g filter="url(#filter20_f_2328_7068)"><circle cx="62.5" cy="42.5" r="7.5" fill="#FFF6EE"/></g><g filter="url(#filter21_f_2328_7068)"><circle cx="42.5" cy="178.5" r="12.5" fill="#FFF3E9"/></g><g filter="url(#filter22_f_2328_7068)"><circle cx="42.5" cy="178.5" r="7.5" fill="#FFF6EE"/></g><g filter="url(#filter23_f_2328_7068)"><circle cx="86.5" cy="670.5" r="12.5" fill="#FFF3E9"/></g><g filter="url(#filter24_f_2328_7068)"><circle cx="86.5" cy="670.5" r="7.5" fill="#FFF6EE"/></g><g filter="url(#filter25_f_2328_7068)"><circle cx="464.5" cy="191.5" r="12.5" fill="#FFF3E9"/></g><g filter="url(#filter26_f_2328_7068)"><circle cx="464.5" cy="191.5" r="7.5" fill="#FFF6EE"/></g><g filter="url(#filter27_f_2328_7068)"><circle cx="220" cy="524" r="9" fill="#FFEFE2"/></g><g filter="url(#filter28_f_2328_7068)"><circle cx="220.401" cy="524.4" r="4" fill="#FFF3E9"/></g><g filter="url(#filter29_f_2328_7068)"><circle cx="59" cy="586" r="9" fill="#FFEFE2"/></g><g filter="url(#filter30_f_2328_7068)"><circle cx="59.4014" cy="586.4" r="4" fill="#FFF3E9"/></g><g filter="url(#filter31_f_2328_7068)"><circle cx="399" cy="403" r="9" fill="#FFEFE2"/></g><g filter="url(#filter32_f_2328_7068)"><circle cx="399.401" cy="403.4" r="4" fill="#FFF3E9"/></g><g filter="url(#filter33_f_2328_7068)"><circle cx="393" cy="467" r="9" fill="#FFEFE2"/></g><g filter="url(#filter34_f_2328_7068)"><circle cx="393.401" cy="467.4" r="4" fill="#FFF3E9"/></g><defs><filter id="filter0_f_2328_7068" x="194.6" y="383" width="4.3999" height="4.40039" filterUnits="userSpaceOnUse" color-interpolation-filters="sRGB"><feGaussianBlur stdDeviation="0.5"/></filter><filter id="filter1_f_2328_7068" x="144.6" y="408" width="4.3999" height="4.40039" filterUnits="userSpaceOnUse" color-interpolation-filters="sRGB"><feGaussianBlur stdDeviation="0.5"/></filter><filter id="filter2_f_2328_7068" x="124.6" y="379" width="4.3999" height="4.40039" filterUnits="userSpaceOnUse" color-interpolation-filters="sRGB"><feGaussianBlur stdDeviation="0.5"/></filter><filter id="filter3_f_2328_7068" x="154.6" y="349" width="4.3999" height="4.40039" filterUnits="userSpaceOnUse" color-interpolation-filters="sRGB"><feGaussianBlur stdDeviation="0.5"/></filter><filter id="filter4_f_2328_7068" x="52.6001" y="253" width="4.3999" height="4.40039" filterUnits="userSpaceOnUse" color-interpolation-filters="sRGB"><feGaussianBlur stdDeviation="0.5"/></filter><filter id="filter5_f_2328_7068" x="177.6" y="194" width="4.3999" height="4.40039" filterUnits="userSpaceOnUse" color-interpolation-filters="sRGB"><feGaussianBlur stdDeviation="0.5"/></filter><filter id="filter6_f_2328_7068" x="329.6" y="223" width="4.3999" height="4.40039" filterUnits="userSpaceOnUse" color-interpolation-filters="sRGB"><feGaussianBlur stdDeviation="0.5"/></filter><filter id="filter7_f_2328_7068" x="373.6" y="216" width="4.3999" height="4.40039" filterUnits="userSpaceOnUse" color-interpolation-filters="sRGB"><feGaussianBlur stdDeviation="0.5"/></filter><filter id="filter8_f_2328_7068" x="455.6" y="248" width="4.3999" height="4.40039" filterUnits="userSpaceOnUse" color-interpolation-filters="sRGB"><feGaussianBlur stdDeviation="0.5"/></filter><filter id="filter9_f_2328_7068" x="417.6" y="377" width="4.3999" height="4.40039" filterUnits="userSpaceOnUse" color-interpolation-filters="sRGB"><feGaussianBlur stdDeviation="0.5"/></filter><filter id="filter10_f_2328_7068" x="420.6" y="424" width="4.3999" height="4.40039" filterUnits="userSpaceOnUse" color-interpolation-filters="sRGB"><feGaussianBlur stdDeviation="0.5"/></filter><filter id="filter11_f_2328_7068" x="340.6" y="451" width="4.3999" height="4.40039" filterUnits="userSpaceOnUse" color-interpolation-filters="sRGB"><feGaussianBlur stdDeviation="0.5"/></filter><filter id="filter12_f_2328_7068" x="318.6" y="481" width="4.3999" height="4.40039" filterUnits="userSpaceOnUse" color-interpolation-filters="sRGB"><feGaussianBlur stdDeviation="0.5"/></filter><filter id="filter13_f_2328_7068" x="373.6" y="501" width="4.3999" height="4.40039" filterUnits="userSpaceOnUse" color-interpolation-filters="sRGB"><feGaussianBlur stdDeviation="0.5"/></filter><filter id="filter14_f_2328_7068" x="371.6" y="460" width="4.3999" height="4.40039" filterUnits="userSpaceOnUse" color-interpolation-filters="sRGB"><feGaussianBlur stdDeviation="0.5"/></filter><filter id="filter15_f_2328_7068" x="211" y="117" width="68" height="68" filterUnits="userSpaceOnUse" color-interpolation-filters="sRGB"><feGaussianBlur stdDeviation="12.5"/></filter><filter id="filter16_f_2328_7068" x="235.401" y="141.4" width="20" height="20" filterUnits="userSpaceOnUse" color-interpolation-filters="sRGB"><feGaussianBlur stdDeviation="3"/></filter><filter id="filter17_f_2328_7068" x="149" y="57" width="85" height="85" filterUnits="userSpaceOnUse" color-interpolation-filters="sRGB"><feGaussianBlur stdDeviation="15"/></filter><filter id="filter18_f_2328_7068" x="178" y="86" width="27" height="27" filterUnits="userSpaceOnUse" color-interpolation-filters="sRGB"><feGaussianBlur stdDeviation="3"/></filter><filter id="filter19_f_2328_7068" x="20" y="0" width="85" height="85" filterUnits="userSpaceOnUse" color-interpolation-filters="sRGB"><feGaussianBlur stdDeviation="15"/></filter><filter id="filter20_f_2328_7068" x="49" y="29" width="27" height="27" filterUnits="userSpaceOnUse" color-interpolation-filters="sRGB"><feGaussianBlur stdDeviation="3"/></filter><filter id="filter21_f_2328_7068" x="0" y="136" width="85" height="85" filterUnits="userSpaceOnUse" color-interpolation-filters="sRGB"><feGaussianBlur stdDeviation="15"/></filter><filter id="filter22_f_2328_7068" x="29" y="165" width="27" height="27" filterUnits="userSpaceOnUse" color-interpolation-filters="sRGB"><feGaussianBlur stdDeviation="3"/></filter><filter id="filter23_f_2328_7068" x="44" y="628" width="85" height="85" filterUnits="userSpaceOnUse" color-interpolation-filters="sRGB"><feGaussianBlur stdDeviation="15"/></filter><filter id="filter24_f_2328_7068" x="73" y="657" width="27" height="27" filterUnits="userSpaceOnUse" color-interpolation-filters="sRGB"><feGaussianBlur stdDeviation="3"/></filter><filter id="filter25_f_2328_7068" x="422" y="149" width="85" height="85" filterUnits="userSpaceOnUse" color-interpolation-filters="sRGB"><feGaussianBlur stdDeviation="15"/></filter><filter id="filter26_f_2328_7068" x="451" y="178" width="27" height="27" filterUnits="userSpaceOnUse" color-interpolation-filters="sRGB"><feGaussianBlur stdDeviation="3"/></filter><filter id="filter27_f_2328_7068" x="186" y="490" width="68" height="68" filterUnits="userSpaceOnUse" color-interpolation-filters="sRGB"><feGaussianBlur stdDeviation="12.5"/></filter><filter id="filter28_f_2328_7068" x="210.401" y="514.4" width="20" height="20" filterUnits="userSpaceOnUse" color-interpolation-filters="sRGB"><feGaussianBlur stdDeviation="3"/></filter><filter id="filter29_f_2328_7068" x="25" y="552" width="68" height="68" filterUnits="userSpaceOnUse" color-interpolation-filters="sRGB"><feGaussianBlur stdDeviation="12.5"/></filter><filter id="filter30_f_2328_7068" x="49.4014" y="576.4" width="20" height="20" filterUnits="userSpaceOnUse" color-interpolation-filters="sRGB"><feGaussianBlur stdDeviation="3"/></filter><filter id="filter31_f_2328_7068" x="365" y="369" width="68" height="68" filterUnits="userSpaceOnUse" color-interpolation-filters="sRGB"><feGaussianBlur stdDeviation="12.5"/></filter><filter id="filter32_f_2328_7068" x="389.401" y="393.4" width="20" height="20" filterUnits="userSpaceOnUse" color-interpolation-filters="sRGB"><feGaussianBlur stdDeviation="3"/></filter><filter id="filter33_f_2328_7068" x="359" y="433" width="68" height="68" filterUnits="userSpaceOnUse" color-interpolation-filters="sRGB"><feGaussianBlur stdDeviation="12.5"/></filter><filter id="filter34_f_2328_7068" x="383.401" y="457.4" width="20" height="20" filterUnits="userSpaceOnUse" color-interpolation-filters="sRGB"><feGaussianBlur stdDeviation="3"/></filter></defs></svg>
