<svg xmlns="http://www.w3.org/2000/svg" width="487" height="713" viewBox="0 0 487 713" fill="none"><g filter="url(#filter0_f_2328_7129)"><circle cx="310.2" cy="385.2" r="1.2" fill="white"/></g><g filter="url(#filter1_f_2328_7129)"><circle cx="360.2" cy="410.2" r="1.2" fill="white"/></g><g filter="url(#filter2_f_2328_7129)"><circle cx="380.2" cy="381.2" r="1.2" fill="white"/></g><g filter="url(#filter3_f_2328_7129)"><circle cx="350.2" cy="351.2" r="1.2" fill="white"/></g><g filter="url(#filter4_f_2328_7129)"><circle cx="452.2" cy="255.2" r="1.2" fill="white"/></g><g filter="url(#filter5_f_2328_7129)"><circle cx="327.2" cy="196.2" r="1.2" fill="white"/></g><g filter="url(#filter6_f_2328_7129)"><circle cx="175.2" cy="225.2" r="1.2" fill="white"/></g><g filter="url(#filter7_f_2328_7129)"><circle cx="131.2" cy="218.2" r="1.2" fill="white"/></g><g filter="url(#filter8_f_2328_7129)"><circle cx="49.2" cy="250.2" r="1.2" fill="white"/></g><g filter="url(#filter9_f_2328_7129)"><circle cx="87.2" cy="379.2" r="1.2" fill="white"/></g><g filter="url(#filter10_f_2328_7129)"><circle cx="84.2" cy="426.2" r="1.2" fill="white"/></g><g filter="url(#filter11_f_2328_7129)"><circle cx="164.2" cy="453.2" r="1.2" fill="white"/></g><g filter="url(#filter12_f_2328_7129)"><circle cx="186.2" cy="483.2" r="1.2" fill="white"/></g><g filter="url(#filter13_f_2328_7129)"><circle cx="131.2" cy="503.2" r="1.2" fill="white"/></g><g filter="url(#filter14_f_2328_7129)"><circle cx="133.2" cy="462.2" r="1.2" fill="white"/></g><g filter="url(#filter15_f_2328_7129)"><circle cx="9" cy="9" r="9" transform="matrix(-1 0 0 1 418 518)" fill="#FFEFE2"/></g><g filter="url(#filter16_f_2328_7129)"><circle cx="4" cy="4" r="4" transform="matrix(-1 0 0 1 412.599 523.4)" fill="#FFF3E9"/></g><g filter="url(#filter17_f_2328_7129)"><circle cx="9" cy="9" r="9" transform="matrix(-1 0 0 1 271 142)" fill="#FFEFE2"/></g><g filter="url(#filter18_f_2328_7129)"><circle cx="4" cy="4" r="4" transform="matrix(-1 0 0 1 265.599 147.4)" fill="#FFF3E9"/></g><g filter="url(#filter19_f_2328_7129)"><circle cx="12.5" cy="12.5" r="12.5" transform="matrix(-1 0 0 1 299 219)" fill="#FFF3E9"/></g><g filter="url(#filter20_f_2328_7129)"><circle cx="7.5" cy="7.5" r="7.5" transform="matrix(-1 0 0 1 294 224)" fill="#FFF6EE"/></g><g filter="url(#filter21_f_2328_7129)"><circle cx="12.5" cy="12.5" r="12.5" transform="matrix(-1 0 0 1 328 87)" fill="#FFF3E9"/></g><g filter="url(#filter22_f_2328_7129)"><circle cx="7.5" cy="7.5" r="7.5" transform="matrix(-1 0 0 1 323 92)" fill="#FFF6EE"/></g><g filter="url(#filter23_f_2328_7129)"><circle cx="12.5" cy="12.5" r="12.5" transform="matrix(-1 0 0 1 457 30)" fill="#FFF3E9"/></g><g filter="url(#filter24_f_2328_7129)"><circle cx="7.5" cy="7.5" r="7.5" transform="matrix(-1 0 0 1 452 35)" fill="#FFF6EE"/></g><g filter="url(#filter25_f_2328_7129)"><circle cx="12.5" cy="12.5" r="12.5" transform="matrix(-1 0 0 1 327 588)" fill="#FFF3E9"/></g><g filter="url(#filter26_f_2328_7129)"><circle cx="7.5" cy="7.5" r="7.5" transform="matrix(-1 0 0 1 322 593)" fill="#FFF6EE"/></g><g filter="url(#filter27_f_2328_7129)"><circle cx="12.5" cy="12.5" r="12.5" transform="matrix(-1 0 0 1 433 658)" fill="#FFF3E9"/></g><g filter="url(#filter28_f_2328_7129)"><circle cx="7.5" cy="7.5" r="7.5" transform="matrix(-1 0 0 1 428 663)" fill="#FFF6EE"/></g><g filter="url(#filter29_f_2328_7129)"><circle cx="12.5" cy="12.5" r="12.5" transform="matrix(-1 0 0 1 55 179)" fill="#FFF3E9"/></g><g filter="url(#filter30_f_2328_7129)"><circle cx="7.5" cy="7.5" r="7.5" transform="matrix(-1 0 0 1 50 184)" fill="#FFF6EE"/></g><g filter="url(#filter31_f_2328_7129)"><circle cx="9" cy="9" r="9" transform="matrix(-1 0 0 1 296 515)" fill="#FFEFE2"/></g><g filter="url(#filter32_f_2328_7129)"><circle cx="4" cy="4" r="4" transform="matrix(-1 0 0 1 290.599 520.4)" fill="#FFF3E9"/></g><g filter="url(#filter33_f_2328_7129)"><circle cx="9" cy="9" r="9" transform="matrix(-1 0 0 1 457 577)" fill="#FFEFE2"/></g><g filter="url(#filter34_f_2328_7129)"><circle cx="4" cy="4" r="4" transform="matrix(-1 0 0 1 451.599 582.4)" fill="#FFF3E9"/></g><g filter="url(#filter35_f_2328_7129)"><circle cx="9" cy="9" r="9" transform="matrix(-1 0 0 1 117 394)" fill="#FFEFE2"/></g><g filter="url(#filter36_f_2328_7129)"><circle cx="4" cy="4" r="4" transform="matrix(-1 0 0 1 111.599 399.4)" fill="#FFF3E9"/></g><g filter="url(#filter37_f_2328_7129)"><circle cx="9" cy="9" r="9" transform="matrix(-1 0 0 1 123 458)" fill="#FFEFE2"/></g><g filter="url(#filter38_f_2328_7129)"><circle cx="4" cy="4" r="4" transform="matrix(-1 0 0 1 117.599 463.4)" fill="#FFF3E9"/></g><defs><filter id="filter0_f_2328_7129" x="308" y="383" width="4.3999" height="4.40039" filterUnits="userSpaceOnUse" color-interpolation-filters="sRGB"><feGaussianBlur stdDeviation="0.5"/></filter><filter id="filter1_f_2328_7129" x="358" y="408" width="4.3999" height="4.40039" filterUnits="userSpaceOnUse" color-interpolation-filters="sRGB"><feGaussianBlur stdDeviation="0.5"/></filter><filter id="filter2_f_2328_7129" x="378" y="379" width="4.3999" height="4.40039" filterUnits="userSpaceOnUse" color-interpolation-filters="sRGB"><feGaussianBlur stdDeviation="0.5"/></filter><filter id="filter3_f_2328_7129" x="348" y="349" width="4.3999" height="4.40039" filterUnits="userSpaceOnUse" color-interpolation-filters="sRGB"><feGaussianBlur stdDeviation="0.5"/></filter><filter id="filter4_f_2328_7129" x="450" y="253" width="4.3999" height="4.40039" filterUnits="userSpaceOnUse" color-interpolation-filters="sRGB"><feGaussianBlur stdDeviation="0.5"/></filter><filter id="filter5_f_2328_7129" x="325" y="194" width="4.3999" height="4.40039" filterUnits="userSpaceOnUse" color-interpolation-filters="sRGB"><feGaussianBlur stdDeviation="0.5"/></filter><filter id="filter6_f_2328_7129" x="173" y="223" width="4.3999" height="4.40039" filterUnits="userSpaceOnUse" color-interpolation-filters="sRGB"><feGaussianBlur stdDeviation="0.5"/></filter><filter id="filter7_f_2328_7129" x="129" y="216" width="4.3999" height="4.40039" filterUnits="userSpaceOnUse" color-interpolation-filters="sRGB"><feGaussianBlur stdDeviation="0.5"/></filter><filter id="filter8_f_2328_7129" x="47" y="248" width="4.3999" height="4.40039" filterUnits="userSpaceOnUse" color-interpolation-filters="sRGB"><feGaussianBlur stdDeviation="0.5"/></filter><filter id="filter9_f_2328_7129" x="85" y="377" width="4.3999" height="4.40039" filterUnits="userSpaceOnUse" color-interpolation-filters="sRGB"><feGaussianBlur stdDeviation="0.5"/></filter><filter id="filter10_f_2328_7129" x="82" y="424" width="4.3999" height="4.40039" filterUnits="userSpaceOnUse" color-interpolation-filters="sRGB"><feGaussianBlur stdDeviation="0.5"/></filter><filter id="filter11_f_2328_7129" x="162" y="451" width="4.3999" height="4.40039" filterUnits="userSpaceOnUse" color-interpolation-filters="sRGB"><feGaussianBlur stdDeviation="0.5"/></filter><filter id="filter12_f_2328_7129" x="184" y="481" width="4.3999" height="4.40039" filterUnits="userSpaceOnUse" color-interpolation-filters="sRGB"><feGaussianBlur stdDeviation="0.5"/></filter><filter id="filter13_f_2328_7129" x="129" y="501" width="4.3999" height="4.40039" filterUnits="userSpaceOnUse" color-interpolation-filters="sRGB"><feGaussianBlur stdDeviation="0.5"/></filter><filter id="filter14_f_2328_7129" x="131" y="460" width="4.3999" height="4.40039" filterUnits="userSpaceOnUse" color-interpolation-filters="sRGB"><feGaussianBlur stdDeviation="0.5"/></filter><filter id="filter15_f_2328_7129" x="375" y="493" width="68" height="68" filterUnits="userSpaceOnUse" color-interpolation-filters="sRGB"><feGaussianBlur stdDeviation="12.5"/></filter><filter id="filter16_f_2328_7129" x="398.599" y="517.4" width="20" height="20" filterUnits="userSpaceOnUse" color-interpolation-filters="sRGB"><feGaussianBlur stdDeviation="3"/></filter><filter id="filter17_f_2328_7129" x="228" y="117" width="68" height="68" filterUnits="userSpaceOnUse" color-interpolation-filters="sRGB"><feGaussianBlur stdDeviation="12.5"/></filter><filter id="filter18_f_2328_7129" x="251.599" y="141.4" width="20" height="20" filterUnits="userSpaceOnUse" color-interpolation-filters="sRGB"><feGaussianBlur stdDeviation="3"/></filter><filter id="filter19_f_2328_7129" x="244" y="189" width="85" height="85" filterUnits="userSpaceOnUse" color-interpolation-filters="sRGB"><feGaussianBlur stdDeviation="15"/></filter><filter id="filter20_f_2328_7129" x="273" y="218" width="27" height="27" filterUnits="userSpaceOnUse" color-interpolation-filters="sRGB"><feGaussianBlur stdDeviation="3"/></filter><filter id="filter21_f_2328_7129" x="273" y="57" width="85" height="85" filterUnits="userSpaceOnUse" color-interpolation-filters="sRGB"><feGaussianBlur stdDeviation="15"/></filter><filter id="filter22_f_2328_7129" x="302" y="86" width="27" height="27" filterUnits="userSpaceOnUse" color-interpolation-filters="sRGB"><feGaussianBlur stdDeviation="3"/></filter><filter id="filter23_f_2328_7129" x="402" y="0" width="85" height="85" filterUnits="userSpaceOnUse" color-interpolation-filters="sRGB"><feGaussianBlur stdDeviation="15"/></filter><filter id="filter24_f_2328_7129" x="431" y="29" width="27" height="27" filterUnits="userSpaceOnUse" color-interpolation-filters="sRGB"><feGaussianBlur stdDeviation="3"/></filter><filter id="filter25_f_2328_7129" x="272" y="558" width="85" height="85" filterUnits="userSpaceOnUse" color-interpolation-filters="sRGB"><feGaussianBlur stdDeviation="15"/></filter><filter id="filter26_f_2328_7129" x="301" y="587" width="27" height="27" filterUnits="userSpaceOnUse" color-interpolation-filters="sRGB"><feGaussianBlur stdDeviation="3"/></filter><filter id="filter27_f_2328_7129" x="378" y="628" width="85" height="85" filterUnits="userSpaceOnUse" color-interpolation-filters="sRGB"><feGaussianBlur stdDeviation="15"/></filter><filter id="filter28_f_2328_7129" x="407" y="657" width="27" height="27" filterUnits="userSpaceOnUse" color-interpolation-filters="sRGB"><feGaussianBlur stdDeviation="3"/></filter><filter id="filter29_f_2328_7129" x="0" y="149" width="85" height="85" filterUnits="userSpaceOnUse" color-interpolation-filters="sRGB"><feGaussianBlur stdDeviation="15"/></filter><filter id="filter30_f_2328_7129" x="29" y="178" width="27" height="27" filterUnits="userSpaceOnUse" color-interpolation-filters="sRGB"><feGaussianBlur stdDeviation="3"/></filter><filter id="filter31_f_2328_7129" x="253" y="490" width="68" height="68" filterUnits="userSpaceOnUse" color-interpolation-filters="sRGB"><feGaussianBlur stdDeviation="12.5"/></filter><filter id="filter32_f_2328_7129" x="276.599" y="514.4" width="20" height="20" filterUnits="userSpaceOnUse" color-interpolation-filters="sRGB"><feGaussianBlur stdDeviation="3"/></filter><filter id="filter33_f_2328_7129" x="414" y="552" width="68" height="68" filterUnits="userSpaceOnUse" color-interpolation-filters="sRGB"><feGaussianBlur stdDeviation="12.5"/></filter><filter id="filter34_f_2328_7129" x="437.599" y="576.4" width="20" height="20" filterUnits="userSpaceOnUse" color-interpolation-filters="sRGB"><feGaussianBlur stdDeviation="3"/></filter><filter id="filter35_f_2328_7129" x="74" y="369" width="68" height="68" filterUnits="userSpaceOnUse" color-interpolation-filters="sRGB"><feGaussianBlur stdDeviation="12.5"/></filter><filter id="filter36_f_2328_7129" x="97.5986" y="393.4" width="20" height="20" filterUnits="userSpaceOnUse" color-interpolation-filters="sRGB"><feGaussianBlur stdDeviation="3"/></filter><filter id="filter37_f_2328_7129" x="80" y="433" width="68" height="68" filterUnits="userSpaceOnUse" color-interpolation-filters="sRGB"><feGaussianBlur stdDeviation="12.5"/></filter><filter id="filter38_f_2328_7129" x="103.599" y="457.4" width="20" height="20" filterUnits="userSpaceOnUse" color-interpolation-filters="sRGB"><feGaussianBlur stdDeviation="3"/></filter></defs></svg>
